<svg id="Layer_1" data-name="Layer 1" xmlns="http://www.w3.org/2000/svg" viewBox="0 0 59.05 60.89"><defs><style>.cls-1,.cls-2{fill:none;stroke:#c9a183;}.cls-1{stroke-miterlimit:10;}.cls-2{stroke-linecap:round;stroke-linejoin:round;}</style></defs><title>Ikona science</title><path class="cls-1" d="M58.55,34.78A29.13,29.13,0,1,1,19.72,3.86"/><path class="cls-2" d="M43.66,45,32.22,27.95a1.76,1.76,0,0,1-.3-1V15.37a.61.61,0,0,0-.61-.61H27.75a.61.61,0,0,0-.61.61V27.11a1.76,1.76,0,0,1-.26.92l-10.43,17A1.76,1.76,0,0,0,18,47.76H42.2A1.76,1.76,0,0,0,43.66,45Z"/><line class="cls-2" x1="26.99" y1="12.23" x2="32.27" y2="12.23"/><path class="cls-2" d="M30.07,8.9a4.12,4.12,0,1,1,5.14,5.9"/><circle class="cls-2" cx="24.8" cy="2.69" r="2.19"/><circle class="cls-2" cx="21.15" cy="12.72" r="2.98"/><path class="cls-2" d="M27,21.45s-7.83,1.89-7.55,6.81,10,6.05,10,6.05,12.37.57,12.75-3.88-6.24-5.11-6.24-5.11"/><path class="cls-2" d="M26.48,27.48s-9.65,2-9.3,7.19,12.25,6.39,12.25,6.39,2.36.09,5.26-.08"/></svg>