<svg id="Layer_1" data-name="Layer 1" xmlns="http://www.w3.org/2000/svg" viewBox="0 0 58.21 51.97"><defs><style>.cls-1{fill:none;stroke:#c9a183;stroke-linecap:round;stroke-linejoin:round;}</style></defs><title>Ikona entrpshp</title><path class="cls-1" d="M12.14,28.46s.36,1.71-.33,2.24.88,1.76,2.46,1.69H17"/><path class="cls-1" d="M10.1,19.35c-1-.65-3-3.91-.28-6.33s12.12,3.05,12.12,3.05l3.73,2.35c2.08,1.32,4.43,2.72,6.94-.09s-2.6-6.67-4.69-2.82-.17,11.93,10,9.11S46.67,7.8,40.25,3.2q-.4-.29-.8-.54C33.66-1,24.32.28,18.87,4.43c-3.81,2.9-4.59,5.4-4.59,5.4l-2.63,6.51a22.83,22.83,0,0,1,1.06,3.23s-1,3.34-2.11,6.1c0,0-.05,1.88,1.79.94a6.58,6.58,0,0,0,1.89.26"/><path class="cls-1" d="M41.89,26.38c-1.11,2.75-2.26,5.82-2.2,7.45.09,2.25,3.15,11.05,5.06,12.75"/><path class="cls-1" d="M53.77,4.15l-5,4.68a1,1,0,0,1-1.39-.1L46.31,7.33a1,1,0,0,0-1.42-.07L41.19,11a1,1,0,0,1-1.34,0L39,10.23a1,1,0,0,0-1.36,0l-2.93,3.21"/><path class="cls-1" d="M44.58,12l-2.84,2.89a.88.88,0,0,1-1.25,0l-.74-.74a.88.88,0,0,0-1.27,0l-2.73,3"/><polyline class="cls-1" points="54.08 7.34 54.01 4.04 50.49 3.75"/><path class="cls-1" d="M55.47,11.11a29.14,29.14,0,1,1-55,19"/><path class="cls-1" d="M12.89,32.39s-.66,1.76.48,2.41.49,2.05,1.1,3.57,7.81,0,7.81,0c2.36,3.34,4.74,13,4.74,13"/><line class="cls-1" x1="22.28" y1="38.38" x2="30.63" y2="34.8"/></svg>