<svg id="Layer_1" data-name="Layer 1" xmlns="http://www.w3.org/2000/svg" viewBox="0 0 56.9 51.69"><defs><style>.cls-1{fill:none;stroke:#c9a183;stroke-linecap:round;stroke-linejoin:round;}</style></defs><title>Ikona tolerance</title><path class="cls-1" d="M5.87,12.79a29.15,29.15,0,0,1,48.07.77"/><path class="cls-1" d="M10,51.19A29.16,29.16,0,0,1,1.65,21.5"/><path class="cls-1" d="M2.95,13.55s1.84,9.13,9.3,9"/><path class="cls-1" d="M38,13.55s1.11,9.43,8.58,9.34"/><path class="cls-1" d="M56.4,13.55S54.06,23,46.59,22.88"/><path class="cls-1" d="M12.25,22.58c6.84-.38,8.43-9,8.43-9s-.3-1.44-1.56-1.1-1,2.13.25,2.66c.94.41,1.85,3.71,2.23,5.23a1.44,1.44,0,0,0,.94,1l3.19,1.1a1.45,1.45,0,0,0,.47.08h5.41a1.45,1.45,0,0,0,.58-.12l3.43-1.49a1.45,1.45,0,0,0,.83-1l1.49-6.38s.12-1.17,1.18-.88.62,1.58.29,1.82"/><polyline class="cls-1" points="7.89 24.11 7.89 34.26 16.19 34.26 16.19 24.11"/><line class="cls-1" x1="10.02" y1="34.26" x2="10.02" y2="43.69"/><line class="cls-1" x1="13.85" y1="34.26" x2="13.85" y2="43.69"/><line class="cls-1" x1="27.35" y1="37.26" x2="27.35" y2="43.69"/><line class="cls-1" x1="31.18" y1="35.75" x2="31.18" y2="43.69"/><line class="cls-1" x1="44.94" y1="42.26" x2="44.94" y2="43.69"/><line class="cls-1" x1="48.78" y1="42.75" x2="48.78" y2="43.69"/><path class="cls-1" d="M23,35.65s3,3.3,8.29-.24,5.77.51,4.34.23-4.37-5.94-4.37-5.94H27.12S25.66,33.84,23,35.65Z"/><path class="cls-1" d="M27.12,29.69s-.56-4.8-2.42-5.69"/><path class="cls-1" d="M31.14,29.69s.56-4.8,2.42-5.69"/><path class="cls-1" d="M42.35,24s-.86,16.06-1.76,17.3,12.68,1,12.56.43c-.48-2.32-2-16-1.76-17.72"/><path class="cls-1" d="M49.42,15.5a3,3,0,1,1-5-.19"/><circle class="cls-1" cx="28.97" cy="17.01" r="2.98" transform="translate(-3.92 10.18) rotate(-18.7)"/><circle class="cls-1" cx="12.04" cy="17.01" r="2.98" transform="translate(-4.82 4.76) rotate(-18.7)"/><rect class="cls-1" x="44.39" y="11.8" width="4.94" height="3.51"/></svg>