<svg id="Layer_1" data-name="Layer 1" xmlns="http://www.w3.org/2000/svg" viewBox="0 0 59.05 69.9"><defs><style>.cls-1{fill:none;stroke:#c9a183;stroke-linecap:round;stroke-linejoin:round;}</style></defs><title>Ikona creativity</title><path class="cls-1" d="M58.55,43.78A29.13,29.13,0,1,1,13.12,16.27"/><path class="cls-1" d="M20,18.93A24.26,24.26,0,0,0,7.8,35.3"/><path class="cls-1" d="M43.61,61.38C50.21,56.74,54.24,51.93,55.8,41h0A24.28,24.28,0,0,0,41.54,18.16"/><path class="cls-1" d="M20.18,19.22a9.66,9.66,0,0,0,6.2,9v2.47a2.48,2.48,0,0,0,2.48,2.48h2a2.48,2.48,0,0,0,2.48-2.48V28.18A9.66,9.66,0,0,0,29.47,9.5a9.76,9.76,0,0,0-9.28,9.72"/><line class="cls-1" x1="26.96" y1="37.12" x2="32.75" y2="37.12"/><line class="cls-1" x1="26.96" y1="34.94" x2="32.75" y2="34.94"/><path class="cls-1" d="M29.85,37.12v6.13S29,51.6,37.24,52.94c0,0,5.19.6,5.55-2.38a2.44,2.44,0,0,0-1.48-2.68,4.22,4.22,0,0,0-2.89-.2c-2.37.64-5.46,2.69-3.66,8.24,0,0,2.75,8-4.94,8.91,0,0-2.56.14-3.31-1s.05-2.65,2.22-2.27L31,62.66a14.46,14.46,0,0,0,13-1.59"/><line class="cls-1" x1="29.85" y1="4.96" x2="29.85" y2="0.5"/><line class="cls-1" x1="42.06" y1="9.44" x2="44.77" y2="5.96"/><line class="cls-1" x1="17.64" y1="9.44" x2="14.94" y2="5.96"/></svg>