<svg id="Layer_1" data-name="Layer 1" xmlns="http://www.w3.org/2000/svg" viewBox="0 0 32.52 32.65"><defs><style>.cls-1{fill:none;stroke:#fff;stroke-linecap:round;stroke-linejoin:round;}</style></defs><title>Ikona FB</title><path class="cls-1" d="M22.15,15.38h3.64a1.14,1.14,0,0,1,1.14,1.14v2.13a1.14,1.14,0,0,1-1.14,1.14H23.48a1.14,1.14,0,0,0-1.14,1.14V31a1.14,1.14,0,0,0,1.14,1.14h7.4A1.14,1.14,0,0,0,32,31V1.64A1.14,1.14,0,0,0,30.88.5H1.64A1.14,1.14,0,0,0,.5,1.64V31a1.14,1.14,0,0,0,1.14,1.14H15.7A1.14,1.14,0,0,0,16.84,31V21a1.14,1.14,0,0,0-1.14-1.14H14.18A1.14,1.14,0,0,1,13,18.74v-2.1a1.14,1.14,0,0,1,1.14-1.14h1.44a1.14,1.14,0,0,0,1.14-1.14V11.3s0-.05,0-.08c0-.52.49-5.51,4.46-5.78a38.9,38.9,0,0,1,5.12-.09,1.14,1.14,0,0,1,1.06,1.13l0,2.23a1.14,1.14,0,0,1-1.14,1.15H24.52A2.55,2.55,0,0,0,22,12.66v2.71"/></svg>
