<?xml version="1.0" encoding="utf-8"?>
<!-- Generator: Adobe Illustrator 21.0.0, SVG Export Plug-In . SVG Version: 6.00 Build 0)  -->
<svg version="1.1" id="Layer_1" xmlns="http://www.w3.org/2000/svg" xmlns:xlink="http://www.w3.org/1999/xlink" x="0px" y="0px"
	 viewBox="0 0 375.3 573.3" style="enable-background:new 0 0 375.3 573.3;" xml:space="preserve">
<style type="text/css">
	.st0{fill:none;stroke:#000000;stroke-linecap:round;stroke-linejoin:round;stroke-miterlimit:10;}
	.st1{fill:none;}
</style>
<path class="st0" d="M173.6,2.7c22.7-1.8,28.5,21.8,23,21.4S180.3,3.9,182.7,1.5c1.6-1.6,7-1.3,12.9,1.2
	c30,12.5,39.9,33.6,39.9,33.6s-4,0.5-8.2,5.9c0,0,8.5-3.8,12.2-1.4c0,0-5.5,2.3-5.6,5.4c0,0,17.2,16.9,4.7,16.9
	c-5.1,0-0.4,4.1-0.2,8.1c0.3,4.5,0.5,7.8-2.2,18.3c0,0-3.4,7.8-1.8,10.5c1.6,2.7,0.9-3.5,3-7.2c2.1-3.8,3.4-1.8,3.8,0
	c0.3,1.8,1,11.2,0,17.3c-1,6.1-2.1,15.1-2.1,20.8s-2.8,4.1-2.8,4.1"/>
<path class="st0" d="M111.9,30.4c19.8-25.2,48.6-12,56.9-10.5c5.3,1,10.4,3.3,14.3,7.1c8.1,7.9,11.8,11.3,12.9,7.8
	c1.5-4.5-4.5-10.3-12.4-17"/>
<path class="st0" d="M195,107.4c-0.9-0.4-4.4,0.9-4.9,0c-0.3-0.6,0.3-0.8,1.2-1.3c1.3-0.7,2.9-2.1,3.8-2.7c1.4-1.1,4.8-2.7,9.5-2.7
	c4.7,0,8.3,2.2,8.3,2.2s-0.6,2.1-4,3.3c0,0-4,1.3-7.1,1"/>
<path class="st0" d="M206.7,101.1c0,0,0.5,4.2-2,5.8"/>
<path class="st0" d="M204.4,101.1c0,0,0.5,2.8-1.9,3c0,0-1,0.1-1.6-0.5"/>
<path class="st0" d="M185,142.6c-0.2,0.7,4.6,1.1,6.5-3.3c0,0,3.5-6.6-1.3-8.4"/>
<path class="st0" d="M165.9,140.5c0.6-1.1,2.6-2.7,3.2-2c2.5,3,6.1,8.5,10.1,5.2c1.5-1.2,3.4-4.7,4.2-5c1.3-0.6,2.8,1.8,3.4,2.3"/>
<path class="st0" d="M161.7,129.9c0,0-3.2,4.9-0.6,10.6c1.3,2.8,4.6,4,5.3,3.2"/>
<path class="st0" d="M195.6,112c0,0,10.9,2.4,15.7,0"/>
<path class="st0" d="M185.5,131.4c0.1,1.2-1.2,2.2-2.3,2.9c-0.5,0.3-0.8,0.9-1.1,1.4c-1.1,1.5-2.2,3.9-4.3,4.2l-1.7,0
	c-1,0-2.4-0.5-3.1-1.2c-1.3-1.3-2.5-3.1-3.6-3.7c-1.4-0.7-2.3-1.6-2.5-3.4c-0.2-1.8-0.3-5.8,0.8-8.7s0.2-15.5,0-16.8
	c-0.5-4.5-6.3-7-6.3-7c-1.7-1.1-11.3-0.7-16.5-2.5c-2.2-0.8-5.7-0.9-7.8-0.2c-2.9,1-5.6,0.9-6.5,2.7"/>
<path class="st0" d="M190.9,103.1c1.6-2.4,3.4-3.3,5-4c1.9-0.8,15.1-0.5,18.6,0.8c2.8,1.1,3.4,2.3,5.7,2.3c1.3,0,2.5-0.9,2.8-2.2
	l0,0c0.7-3-0.9-6.1-3.8-7.2c-1.2-0.4-2.5-0.7-4-0.7c-3.6,0.2-14.2,1.7-19.3,3.1c-1.5,0.4-4.3,1.6-6.6,2.7c-1.1,0.6-2.9,2.2-2.9,2.2
	c-1,1.1-2.7,3.6-2.8,5"/>
<path class="st0" d="M147.3,109.6c-5.1-0.3-9-4.5-9-4.5s4.7-1.8,9.9-2.6c5.2-0.7,9.1,0.8,11.3,2.2c1.2,0.8,2.9,1.7,2.9,1.7
	s2,0.9,1.2,2c-0.8,1.1-3.9-0.4-5,0"/>
<path class="st0" d="M145.4,103.4c0,0-0.4,4.3,3.9,4.8"/>
<path class="st0" d="M152.8,102.8c0,0,0.7,3.5-2.6,3.5c0,0-1.9,0.3-1.9-1.7"/>
<path class="st0" d="M131.8,105.3c0,0-3.5,0.9-5.6-3.8"/>
<path class="st0" d="M175.2,147.9c0,0-1.2,1.5,0,5.6"/>
<path class="st0" d="M157.2,159.9c0,0,9.3-3.7,14-3.6c4.1,0.1,4.4,3,10.6,0.9c0.9-0.3,1.8-0.4,2.7-0.4c1.2,0.1,4.5,0.6,7.6,1.7
	c2.8,1,5.4,2.6,5.7,2.2"/>
<path class="st0" d="M201.3,161.7c-1.6-1.5-3-6.7-3-6.7"/>
<path class="st0" d="M162.5,168.2c0,0,13.2,8.2,30.8-0.6"/>
<path class="st0" d="M126.2,45c-11.6,15.7-4.1,27.5-4.5,38.2c-0.2,5.9-4,26-4,30.3c0,4.3,4.5,22,2.9,22.9c-1.7,0.9-9.2-6.4-4.7-35.8
	c-5.2-22.5-6.8,4.2-5.9,6.3"/>
<path class="st0" d="M161.3,9.8c-8-1.1-16.2,0.4-23.3,4.3c-32,17.5-35,34.9-30.7,51.5c0,0,2.5,10.5,1.5,16.4"/>
<path class="st0" d="M132,74.5c0,0-5.8-8.7-3.9-23.1c0.6-4.5,4.3-8,8.9-8.3c6-0.4,16.1-1.3,26.2-2.7c15.7-2.2,45.2,0.7,50.9,5.1"/>
<path class="st0" d="M224.3,136.4c13.8-23.9,4.8-42.3,4.4-48.6c-1.2-17.3,3.7-20.9-1.3-32.7"/>
<path class="st0" d="M219,144.9c0,0-4.4,8.1-3.3,12.5"/>
<path class="st0" d="M131,142.6c0,0-10.1-10.3-12-21"/>
<path class="st0" d="M135.1,149.6c0,0,2.8,5.1,4,9.2c0.4,1.6,0.9,3.1,1.5,4.6c0.4,0.9,0.9,2.3,1.6,4.4c1.9,6.1,8.9,10.9,8.9,10.9"/>
<path class="st0" d="M174.9,178.4c0,0,8-1,11.3,0"/>
<path class="st0" d="M141,113.9c0,0,6.8,1.4,13.5-1.2"/>
<path class="st0" d="M222.5,166.3c0.3,8.7-2.1,26.4,8.8,33.3c5.3,3.4,20.1,9.1,20.6,18.2c0.5,9.1-9.1-7.8-3.2-9
	c5.9-1.2,21.3,10.7,28.1,10.7s5.4,1.2,12.5,3.5c7.1,2.3,9.4,4.6,13.1,4.9s21.1,0.9,22.2,7.4c1.1,6.5-8-0.5-10.4,5.7"/>
<path class="st0" d="M310.9,251c0,0-12.7,44.2-17.5,47.7c-4.8,3.5,1.9-14.4,18.9-23.9s-19.2,27.5-20.4,34
	c-1.2,6.4,21.9-10.1,21.9-10.1"/>
<path class="st0" d="M333.3,246.3c0,0,8,4.8,11.9,15.6c3.9,10.8,9,22.9,8.8,28.4c-0.3,5.4-6.4,7-11.3,7.5
	c-4.9,0.5,3.4-10.6,11.3,2.3c8,12.9,5.2,33.6-0.8,37.4"/>
<path class="st0" d="M353.8,325.2c0,0,8.6,4.7,9.6,15.7c1,11,11,23.9,9.4,32.5c-1.6,8.6,3.3,17.3-3.3,20.1
	c-6.6,2.8,5.8-7.3,5.2-12.8c-0.5-5.4-12.8-14.7-40.8-11.1c-22.3,2.9-42.7,16.8-43.8,25.9c0,0-12-23.5-5.6-50.4"/>
<path class="st0" d="M130.7,204.4c0,0,8-4.4,8.2-7"/>
<path class="st0" d="M138.3,204.4c0,0,1.6-8.2,0-14.1s-3.1-15-3.1-15"/>
<path class="st0" d="M155.3,234.2c0,0-17.9-3.5-22.6-2.3"/>
<path class="st0" d="M239.8,227.2c0,0-15.4,1.1-23.1,3.6"/>
<path class="st0" d="M59.5,263.9c0,0,26.9,38,26.7,47.7c-0.3,9.7-5.4-0.9-5.1-23.9c0,0-0.1-4-1.4-7"/>
<path class="st0" d="M88.4,281.6c0,0,0.8,43.7,3.3,51.4c2.4,7.7-3.8-16.5-18.8-22.5"/>
<path class="st0" d="M53.7,290.6c0,0,22.8,21.7,24.4,27.2c0,0,4.4,8.5-12.2,3.9c-16.6-4.6-25.6-13.8-15.5-13.6
	c0,0,39.7,16.3,43.8,35.5s-0.5,48.8-4.1,50.5c-3.6,1.7,2-7.6-12-10.9c-26.4-6.3-53.4,2.2-53.4,2.2c-7.5-0.3-18.8,6.8-20,11.1
	c-1.2,4.2,2.8,12.6-1.8,6.1s1.1-11.2-1.8-15.5c-2.9-4.3,7.2-46.5,8.9-46.7s3.9,16.6,5.1,8.3c1.2-8.3-7.4-8.2-2.5-27.4
	s19.8,13.6,12.1,15.9c-7.8,2.4-9-13.9-9.9-19.7c-0.9-5.8,0.7-51.6,10.2-57.5c9.5-5.9,4.9-17.5,13.9-21.4s23.4,8.2,15.3,6.7
	c-8.2-1.4-16.4-11.1-4.6-11.1s15.2-4.9,26-8.9s20-8.7,23.5-8.9c3.6-0.2,4.3-1.9,12.4-4.3s20.4-4.6,14-5.4c-6.3-0.7-5.2,4.9-1.7,16.4
	s16.3,17.9,31.2,24c15.1,6.3,41.8,11.4,64.2,2.3c22.4-9,25.6-23.4,25.6-23.4"/>
<path class="st0" d="M330.6,386.1c0,0-11,9.3-26.2,8.8c-15.3-0.5-30.6,6.4-39.5,7.2c-17.1,1.6-39.5,3.2-58,0.5s-49.7-14.3-78.5,1"/>
<path class="st0" d="M345.3,422.8c0,0-3.4,12.1-31.5,1.6"/>
<path class="st0" d="M367.5,383.6c0,0,0,48.6-5.7,60.2c-5.7,11.7-6.5,28-11.2,31.2c-4.7,3.2-11,4.7-24.9,1.6c0,0-24.1-6.3-31.6-12.5
	c-7.6-6.2,25.2,5.3,21.1,12.4s-54.2,7.9-77.6,0.6c-27-8.4-55.7-19.2-65.1-30.3"/>
<path class="st0" d="M140.5,398.7c0,0-17.1-0.1-25.6-6.1s-22.8-3-22.8-3"/>
<path class="st0" d="M115.9,406c0,0-5.3-2.7-8.5-2.7"/>
<path class="st0" d="M162.9,446.8c0,0-35.1-13.7-38.6-16.2"/>
<path class="st0" d="M118.4,433.4c7.4-6.9,44.5-1.7,44.5-1.7"/>
<path class="st0" d="M88.3,394c0,0-2,9.7-6.1,19.3"/>
<path class="st0" d="M75.7,404.8c0,0,6.1,4.2,7.4,12.5s-6.1-7.4-10.1-8.2c-4-0.8-13.1,2.5,2.4,9.1s32,10.5,49,17"/>
<path class="st0" d="M31.5,449.5c0,0,8.5,13.7,20.2,11.7"/>
<path class="st0" d="M4.9,404.9c0,0,0.4,18.3,3,39.6c1.9,15.9,7.7,27,11.6,35c1.3,2.6,2.1,5.4,2.6,8.3c0.7,4.9,2.7,12.8,7.9,16.6
	c7.8,5.6,19,0.6,19,0.6"/>
<path class="st0" d="M31.5,495.7c0,0,15.2,14.6,35.2,8.9"/>
<path class="st0" d="M154.8,488.2c0,0-44.2,3.8-55.4,2.8c-11.2-1-35.6,13.3-29.1,15.9s65.7,2.2,96.2-10.3s32.4-7.3,57.7-23"/>
<path class="st0" d="M82.3,455.5c0,0,45.6,0.8,51.3-1.3"/>
<path class="st0" d="M184.2,113.9"/>
<path class="st0" d="M193.9,164.8l5.8-5c-7.1,4.2-10.6,2.1-16,2.4c-8.9,0.5-13.2,0.2-16.1-0.7c-0.8-0.2-1.5-0.3-2.3-0.3
	c-6.2,0.6-14.9-4.3-14.9-4.3c2.3-0.6,3.9-1.8,3.9-1.8"/>
<path class="st0" d="M160.4,165.9c0,0-5.1-4.9-5.9-7"/>
<path class="st0" d="M194.3,189.9c0,0,2.8-4.6,8-9.4"/>
<path class="st0" d="M129,167.8"/>
<path class="st0" d="M161.1,102.8c0,0-9-3.3-15.4-1.7c-6.4,1.7-9.6,2.3-9.6,2.3"/>
<path class="st0" d="M52.3,506c0,0,0.4,16.8-1.7,33.8c-1.2,9.9-2.6,21.3-3.4,33"/>
<path class="st0" d="M155,103.4c0,0,0.2,3-1.1,3.8"/>
<path class="st0" d="M177,96.2c0,0,3.6,4,4.9,5.2"/>
<path class="st0" d="M138.3,85.6"/>
<path class="st0" d="M134.5,92.6l0.9-0.6c2.5-1.8,5.7-2.2,8.7-1.2c2.3,0.8,6,1.6,7.3,1.8"/>
<path class="st0" d="M153.9,78.2c0,0,1.5,4.9,7.7,7.4"/>
<path class="st0" d="M155.9,132.7c0,0-3.1,6.3-7.5,8.9"/>
<path class="st0" d="M174,166.9c0,0,1.5,0.4,5.4,0"/>
<path class="st0" d="M193.1,91.4c0,0,8.7-2.2,18.3-5.3c1.2-0.4,2.4-0.5,3.6-0.5c1.7,0.1,4.2,0.4,6,1.4c0.5,0.3,1-0.2,0.8-0.7
	c-1.1-3.1-2.8-8.8-2.7-11.1c0.1-3.3,1.9-11,1.2-18.1"/>
<path class="st1" d="M148.4,37.8c0,0-3.2-8.5-12.3-9.4"/>
<path class="st0" d="M235.8,106.1c0,0,2.2,5.7,1.7,10c-0.4,4.2-4.8,8.5-5.4,15.1c0,0-1.5,22.9-6.2,30c-4.7,7.1-15.3,20.9-27,28.3
	s-12.2,7.7-18.8,7.5c-6.6-0.1-15,2.4-24.8-7.3c-8.9-8.8-18.8-10.5-26.4-22c-1.4-2.2-2.5-4.5-3.3-7c-4.5-15-5.6-32.5-5.6-32.5"/>
<path class="st0" d="M161.1,203.6c0,0,12.7,18.5,14,22.9"/>
</svg>
