<svg id="Layer_1" data-name="Layer 1" xmlns="http://www.w3.org/2000/svg" viewBox="0 0 1331.18 347.02"><defs><style>.cls-1,.cls-2,.cls-3,.cls-4{fill:none;stroke:#0d0b1a;}.cls-1,.cls-2{stroke-miterlimit:10;}.cls-2{stroke-dasharray:7;}.cls-3,.cls-4{stroke-linejoin:round;}.cls-4{stroke-linecap:round;}</style></defs><title>Iliustracija1</title><path class="cls-1" d="M416.32,292.27c21.08,14.07,51.49,12.46,70,8.44,24.26-5.28,56.07-21.52,60.09-84.41,0,0,.92-67.82,82.38-24.34"/><path class="cls-1" d="M760.84,233.7c-1.45,2.69-2.74,5.3-3.93,7.69-8.7,17.4-40.16,28.11-40.16,28.11,0-14.73,10-28.78,10-28.78-8-5.52-22.09-6.15-28.61-6.12-2.18,0-.72-3.66,1-5.05,12.64-10.32,35-3.56,35-3.56l12.72-20.08c12.45-14.31,17.74-6.32,13.39,5-4.13,10.75-13.39,23.76-13.39,23.76,10.45,20.77,11.26,33.66,8.38,37.41-1.18,1.54-2.24,2.62-3.6-.32-4.6-10-16.6-22.95-16.6-22.95-16.36,11.33-32.44,7.58-59.33-9.47"/><path class="cls-1" d="M947.73,177.07c-14,6.23-30.27,6.36-49.22-1.71-58.23-24.8-79.26,53.92-30.2,72.25,39.14,14.62,68.81-28.21,55-65.78-8.82-24-43.5-41-65.78-44.75-38.25-3.89-60.77,5-72.72,25a29.32,29.32,0,0,0-1.7,3.32c-2.41,6-22.83,30.06-28.86,22.07-3-3.92,21.45-15.79,21.52-1a42,42,0,0,0,.22,4.48c.59,5.3.65,15.82-15.16,42.75"/><path class="cls-1" d="M1085.44,116.68c.87-1.09,3.59-2.76,5.86-4a14.8,14.8,0,0,1,9.2-1.87c8.67,1.17,5.19,8.44,1.65,6.77s-3.86-22.78,10.29-24.5c16.17-2,28.9,9.8,24.25,21.07s-14.94-18.37,8.08-17.88S1172.22,119,1169,124.15s-6.61-8.57,4.65-6.37"/><path class="cls-1" d="M1060.78,144.1l20.59-31.68a1.21,1.21,0,0,1,2.11.19c3.88,8.82,21.45,44.59,44.64,66.09,21.1,18.09,45.82-1.22,27.45-24.91-13.06-16.84-35.39-20.35-49.18-21"/><path class="cls-1" d="M332.2,184.55s12.31,8.78-7,19.36c-16.22,8.9-39.57-4.19-46.55-8.56a7.77,7.77,0,0,1-3.54-4.84,4.07,4.07,0,0,1,3.78-4.71"/><path class="cls-1" d="M338.71,192.26s1.2,17.67-29.34,19.56"/><path class="cls-1" d="M533.45,266.75S520,212.76,564.7,202s90.84,32.35,90.84,32.35,30.48,29,52,28.14c0,0-3.7,11.68,4.49,19.16"/><path class="cls-1" d="M556.69,233.54A44.88,44.88,0,0,1,553.13,250"/><path class="cls-1" d="M548.46,267s-7.78,14.59-9.47,14.74"/><path class="cls-1" d="M543.72,297.33c-51.54,56.87-137.82,15.11-137.82,15.11s-40.38-27.07-78.09-14-72.63,3.36-81.42-13.19"/><path class="cls-1" d="M529.58,293.32s-9.69,10-13.66,10.21"/><path class="cls-1" d="M502,309.74s-10.53,4-18.08,4"/><path class="cls-1" d="M556.69,219.17s3.79-8.83,16.34-3.6"/><path class="cls-1" d="M1043.85,121.5l8.49-9.95,1.3,1.6a6.4,6.4,0,0,0,10.14-.26L1085.08,84a2.43,2.43,0,0,1,4,.05l12.4,17.78"/><path class="cls-1" d="M1112.44,234.27s2.73-2.56.17-2.56-4.28-7.53-4.28-7.53,4.59-.68,1.47-2.17-5.07-12.64-5.07-12.64l-6.63,12s0,1.27,1.62,1.39"/><path class="cls-1" d="M1098.11,233.41s-4.14,0-4.14-.84,2.91-2.22,3.25-5"/><path class="cls-1" d="M1127.67,240.94s2.57-2.57,0-2.57-4.28-7.53-4.28-7.53,4.59-.68,1.47-2.17S1119.8,216,1119.8,216l-6.63,12s0,1.27,1.62,1.39"/><path class="cls-1" d="M1113.17,240.07s-4.14,0-4.14-.84,1.42-2.74,3.42-5"/><path class="cls-1" d="M964.15,177.78a17.91,17.91,0,0,1-.37-6.82"/><path class="cls-1" d="M1051.4,217.23s-79.9-10.31-87.25-39.45"/><path class="cls-1" d="M356.57,244.69s3.2,16.77-7.19,25.56-65.19,8.57-65.19,8.57-19.31,0-28.45-15.11c0,0-2.69-7.19,4-5.17s9.1,12.3,6,20.29-9.8,22.7-32.56,30.92-56.53,2.94-94-28c0,0-43.63-44.95-67.45-52.94S.17,238.34.17,238.34"/><path class="cls-1" d="M349.38,270.25s17.55,1.42,17.55-9.93"/><path class="cls-1" d="M391.88,236.35s-5.44-16-18.68-17.18-60.46-2.25-60.46-2.25-16.51,1.27-27-3.22"/><path class="cls-1" d="M402,258.53s60.08-51.26,74.91-72.11,0-33.36,0-33.36"/><path class="cls-1" d="M441,183.57s-5.31-2-14.49,7.2c0,0-22.35,17.54-23.74,23.15-1.73,7-18.37,10.75-20.43,3.66s6.19-3.66,6.19-3.66,28.88,21.27,13.43,44.62"/><path class="cls-1" d="M467.81,169s-8.84.9-11.66-10c-2-7.93-8.13-17.57-11.3-22.26a8.74,8.74,0,0,1-1.38-6.39c1.28-7.46,4.28-24.51,5.84-29.8,0,0,2.46-8,3.14-8.44s3.78-.41,3.13,6.6"/><path class="cls-1" d="M451.35,126.43s.27-14.16,1.1-16.22,3.71-15.26,5.64-19.8,4.4-1.79,4.4,0,.14,7.29-.82,9.49"/><path class="cls-1" d="M465.78,114.06s3.57-15.67,5.77-16.77,2.89,2.47,1.92,4.81-2.89,15.67-2.89,15.67.34,5.53-.75,5.74-2.34-4.35,4.06-8.7S483,112,483,112"/><path class="cls-1" d="M472.53,192s-.43-23.89-17-21.17-9.6,18.36-4.23,18.7"/><path class="cls-1" d="M458.87,179.3s-17.11-8.78-18.81,3.77"/><path class="cls-1" d="M489.89,113.93s4.06,2,7.25,0"/><path class="cls-1" d="M411.71,287.58s-16.63-15.34-9.71-29.05"/><path class="cls-1" d="M506.67,111.62s28.85-4.47,26.92-25.63-9-18.27,6.09-31.73"/><path class="cls-2" d="M458.87,108.93s3.43-13,6.91-17,2,6.5,2,6.5"/><path class="cls-1" d="M541.7,53.19s30.41-13.82,43.45-16.59c0,0-18.37,19.55-19.95,19.75s-2.29-6.09-6.94-6.21l22.1-12.29"/><polyline class="cls-1" points="557.13 50.28 554.63 58.46 563.43 54.77"/><path class="cls-1" d="M553.63,59.46l-.78-11.14s-4.92-.46-6.36,0,23.23-9.41,31.2-9.62"/><path class="cls-1" d="M600.62,36.6s67.65-22.4,88,25.45-31.35,57.42-51.7,35,11-67.93,60-46.8,49,69,35.2,95.38"/><path class="cls-1" d="M793,172.1s18.35-28.45,58.9-23.71,51.5,28.53,51.5,28.53,21.48,31.32-6.13,55.42"/><path class="cls-1" d="M753.32,68.55s12,6.21,12.83,11.17,24.41-38.89,24.41-38.89Z"/><path class="cls-1" d="M790.56,40.83l-2.9,47.68L773.6,83.44s18-31.17,17-42.62"/><polyline class="cls-3" points="767.15 79.72 760.22 84.94 773.6 83.44"/><line class="cls-3" x1="760.22" y1="84.94" x2="763.8" y2="75.88"/><path class="cls-3" d="M426.55,190.77c-51-14.46-84.26-7.7-84.26-7.7l-17.17,3.06"/><path class="cls-4" d="M1004.22,26.38s32.24,7.28,43,14.45c0,0-27.79-5.53-33.2-3S1004.22,26.38,1004.22,26.38Z"/><path class="cls-4" d="M1004.22,26.38s-7,15.45-4.41,19.29l-5.45-16.55s5.57.92,6.7,1.56"/><path class="cls-4" d="M802.22,33.6S832.17-9.34,880.35,19c34.95,20.56,42.27,39.15,48.53,46.52,7.91,9.32,20.52,3.68,13.62-5.94-4.12-5.74-16.16-14.59-11.84-28.22,6.38-20.16,32.72,19.41,69.14,14.3,0,0,31.76-6.82,36.42-5.1"/><path class="cls-4" d="M969.59,165.3s-4.45-.78,18.12-12.35"/><line class="cls-4" x1="1049.19" y1="0.5" x2="1044.5" y2="9.32"/><line class="cls-4" x1="1042.69" y1="1.5" x2="1051.19" y2="7.12"/><line class="cls-4" x1="1041.93" y1="5.76" x2="1046.84" y2="4.25"/><line class="cls-4" x1="605.24" y1="74.36" x2="596.01" y2="78.19"/><line class="cls-4" x1="599.59" y1="71" x2="602.57" y2="80.75"/><line class="cls-4" x1="596.29" y1="73.8" x2="601.04" y2="75.76"/><line class="cls-4" x1="879.06" y1="87.94" x2="885.06" y2="94.1"/><path class="cls-3" d="M322.15,176.31s-.92,8.52,9.11,17.14"/><path class="cls-3" d="M281.81,175.11c0,5.74-4.9,3.54-4.9,3.54-4.08-1.09-5.4-5.47-1.9-5.75s3.72,11.71,3.72,11.71,3.06,20.56-16.42,31.92c0,0-15.34,15.39-15.92,21.36s-4.67,34.85,14.67,49.68,64.06,5.74,64.06,5.74"/><path class="cls-3" d="M461.88,203.51s29,16,48.21,15.66c0,0,24.11-2,37.21-9"/><path class="cls-1" d="M1076.16,152.94s-17.72-8.4-27.55-23.43"/><path class="cls-3" d="M1099.39,223.16s-80.31,15.8-133.64-22.38,30-60.26,30-60.26c-27.83,17.15,8,37.94,21.59,16.64,0,0,5.44-8.47.88-14.22a7.42,7.42,0,0,0-12.23,1.13c-1.23,2.29-.48,4.41,6.88,4.15,10.36-.37,19.27-37.72,24.43-33a54.23,54.23,0,0,1,8.46,10"/><line class="cls-1" x1="888.06" y1="88.51" x2="877.39" y2="93.13"/><path class="cls-2" d="M894.64,234.86s-21.47,14.57-51.1-11.31"/><path class="cls-1" d="M1113.17,140.51a38.62,38.62,0,0,1-9.45-12.47c-3.14-7.21-4.53,1.28-9.74,3.92"/><path class="cls-1" d="M1132.69,109.34s13.41.84,20.45-1.84,7.54-8.38,6.37-13.24-8.72-6.54-8.72-6.54a11.11,11.11,0,0,0-2.68-10.22c-4.36-4.69-11.51-2.7-11.51-2.7s.11-2.5-4.41-3.58-5.66,1.9-5.66,1.9c-14.34-6.42-15.14,5.5-15.14,5.5s-1,3.3.67,4,6.11-3.94-4.83-4.93-13.7,10.6-10.55,12.54"/><path class="cls-1" d="M1125.14,107.5s-13-1-19.24-4.53"/><path class="cls-1" d="M1177.11,119.37s30.33,7.71,43.48,39.75,76.17,39.41,110.22,0"/><path class="cls-3" d="M282.76,160.23s3.43,7.05,10.93,9.51c6.34,2.08,39.3-.57,39.3-.57s-9.79,1.42-10.84,7.15"/><path class="cls-1" d="M280.84,156.44s-2.24,1.49-6,.26-8-5.51-9.66-12.62,8.27-6.15,8.27-6.15,4.67,3.88,3.75,7.17,1,2.81,1.61,2.72"/><path class="cls-1" d="M277.18,145.1s-6.53-5.51-8.64-4.21"/><path class="cls-1" d="M277.82,150.34s-.82,2-3.44,1.17"/><path class="cls-1" d="M315.9,101.63a3,3,0,0,0-4.11.43,5.67,5.67,0,0,0-1.65,3.76c-.6,8.48-6.25,5.32-6.08,4.35s5.46-1.63,5.46-1.63a10.71,10.71,0,0,1,7.55,1.48s10.24,10.93,11.28,14.14a4.39,4.39,0,0,1,.65,3.12"/><path class="cls-1" d="M327.92,123.84s-5.34,2.57-3.09,5.49c0,0,3.14,4,5.78,5.66s4,1.83,4.7,5.23"/><path class="cls-1" d="M318.83,100.32s-7-7.12-12,8.66"/><path class="cls-1" d="M306,99.09s-8.92-3.26-15.11,10.73c0,0-.71,3.6-6.34,4.08"/><path class="cls-1" d="M318.77,111.88s-2.26-14.3-8.51-6.9"/><path class="cls-1" d="M305.91,96.09a13.85,13.85,0,0,0-15.87,7.4c-5.5,10.41-13.89,10.82-13.89,10.82,15.41.86,21-6.64,21-6.64,8.25-13.56,14.52-7.6,14.52-7.6"/><path class="cls-1" d="M276.67,118.85s5.83,9.37-.08,19.38"/><path class="cls-1" d="M275.36,126.64s3.13,8.62.61,13.43"/><path class="cls-1" d="M296.53,97s-29.78-1.72-28,15.72"/><path class="cls-1" d="M291.08,101.77s-11.15-1.34-12.74,2.67"/><path class="cls-3" d="M274.32,101.29s-11.71,3.29-10.87,13.23c0,0-8.06,6.55-8.15,10.18"/><path class="cls-3" d="M316,125.24s-10.86,0-11.73,2.67a8.67,8.67,0,0,1-3.09,4.12"/><line class="cls-1" x1="273.43" y1="137.93" x2="272.9" y2="132.47"/><path class="cls-3" d="M263.47,112.34c-11,3.72-20.49,19.58-11.91,23.36s18.16-14.36,13.37-15.56c-1.8-.45-3.65.71-5.27,2.35a18.72,18.72,0,0,0-5.21,12.9c-.12,6.82,1,17.51,8.51,22.6,11.49,7.79,15.14,10.5,13.35,16"/><path class="cls-1" d="M335.86,148.61s-1.17,2.2-3.33,1.78-5.4,2.49-5.4,2.49a12.15,12.15,0,0,1-6.58-.7"/><path class="cls-4" d="M328.72,156a8.82,8.82,0,0,0,6.74-1.53s-.88,2.28-.43,3.6,1.18,4.46,1.18,4.46c1.28,4.71-3.22,6.61-3.22,6.61"/><path class="cls-3" d="M276.15,114.31s-7-2.6-12.71.21"/><path class="cls-3" d="M307.13,131.47s5.75-3.19,6.5-1.14c.44,1.21-3,1.81-3.21,0"/><polyline class="cls-3" points="310.75 130.32 312 130.55 313.25 130.44"/><path class="cls-1" d="M726.88,153.05s-24.21,52.74-89,42.69"/></svg>
