<svg id="Layer_1" data-name="Layer 1" xmlns="http://www.w3.org/2000/svg" viewBox="0 0 421.35 224.25"><defs><style>.cls-1,.cls-2,.cls-3{fill:none;stroke:#d3d3d3;stroke-width:1.5px;}.cls-1{stroke-miterlimit:10;}.cls-2,.cls-3{stroke-linejoin:round;}.cls-3{stroke-linecap:round;}</style></defs><title>Iliustracija3</title><path class="cls-1" d="M128.36,57.33s5.29,12.43,2.76,16.78,43.6-14.41,43.6-14.41Z"/><path class="cls-1" d="M174.72,59.7,142.1,94.6l-7.61-12.87s33.75-12.53,40.23-22"/><polyline class="cls-2" points="131.9 74.75 123.22 74.36 134.49 81.73"/><line class="cls-2" x1="123.22" y1="74.36" x2="131.76" y2="69.65"/><line class="cls-3" x1="376.1" y1="1.37" x2="381.27" y2="7.53"/><line class="cls-3" x1="382.09" y1="2.16" x2="375.28" y2="6.23"/><line class="cls-3" x1="379.18" y1="0.75" x2="378.63" y2="4.03"/><rect class="cls-3" x="342.07" y="45.12" width="76.45" height="45.32" transform="translate(8.74 -37.87) rotate(5.77)"/><polyline class="cls-3" points="349.2 48.24 378.32 72.66 420.32 51.81"/><line class="cls-3" x1="387.34" y1="68.72" x2="416.32" y2="91.43"/><line class="cls-3" x1="371.11" y1="66.86" x2="340.26" y2="83.75"/><path class="cls-3" d="M322.07,37.09s-101.2,3.13-107.46,25,16.69,19.82,19.82,11.48-5.22-31.38-42.77-19.91"/><path class="cls-3" d="M112.94,83.39C70.21,106.52,17.43,149.25.75,223.5"/></svg>