<?xml version="1.0" encoding="utf-8"?>
<!-- Generator: Adobe Illustrator 21.0.0, SVG Export Plug-In . SVG Version: 6.00 Build 0)  -->
<svg version="1.1" id="Layer_1" xmlns="http://www.w3.org/2000/svg" xmlns:xlink="http://www.w3.org/1999/xlink" x="0px" y="0px"
	 viewBox="0 0 1499.2 200.2" style="enable-background:new 0 0 1499.2 200.2;" xml:space="preserve">
<style type="text/css">
	.st0{fill:none;stroke:#D3D3D3;stroke-miterlimit:10;}
	.st1{fill:none;stroke:#D3D3D3;stroke-linejoin:round;stroke-miterlimit:10;}
	.st2{fill:none;stroke:#D3D3D3;stroke-linecap:round;stroke-linejoin:round;stroke-miterlimit:10;}
	.st3{fill:#FFFFFF;stroke:#D3D3D3;stroke-linecap:round;stroke-linejoin:round;stroke-miterlimit:10;}
</style>
<path class="st0" d="M614.4,57.4c0,0,30.4-13.8,43.4-16.6c0,0-18.4,19.6-19.9,19.7s-2.3-6.1-6.9-6.2l22.1-12.3"/>
<polyline class="st0" points="629.8,54.5 627.3,62.7 636.1,59 "/>
<path class="st0" d="M619.2,52.5c-1.4,0.5,23.2-9.4,31.2-9.6"/>
<path class="st0" d="M626.3,63.7l-0.8-11.1c0,0-4.9-0.5-6.4,0"/>
<path class="st0" d="M1144.4,36.1c0,0,5.3,12.4,2.8,16.8s43.6-14.4,43.6-14.4L1144.4,36.1z"/>
<path class="st0" d="M1190.7,38.4l-32.6,34.9l-7.6-12.9C1150.5,60.5,1184.3,47.9,1190.7,38.4"/>
<polyline class="st1" points="1147.9,53.5 1139.2,53.1 1150.5,60.5 "/>
<line class="st1" x1="1139.2" y1="53.1" x2="1147.8" y2="48.4"/>
<path class="st1" d="M761.9,9.8"/>
<line class="st2" x1="969" y1="83.6" x2="959.7" y2="87.4"/>
<line class="st2" x1="963.3" y1="80.2" x2="966.3" y2="90"/>
<line class="st2" x1="960" y1="83" x2="964.8" y2="85"/>
<line class="st2" x1="823.3" y1="28.2" x2="828.5" y2="34.4"/>
<line class="st2" x1="829.3" y1="29" x2="822.5" y2="33.1"/>
<path class="st0" d="M597.1,68.9c0,0-28.6,26.5-76.7,5.6s-243.1-106.2-366.6-61S0.4,108.9,0.4,108.9"/>
<path class="st3" d="M877.9,113.2"/>
<line class="st3" x1="883.7" y1="70.6" x2="877.9" y2="113.2"/>
<line class="st3" x1="885.8" y1="72" x2="880.6" y2="110.9"/>
<path class="st3" d="M877.8,132.9l-5.9,43.4l-0.5,4.1c0,0-1.6,0.7-2.5-0.6l5.3-37.6"/>
<path class="st2" d="M677.9,33.4c0,0,40.1-8.9,58.7,20.2c0,0,18.5,33.5,2.7,52.3s-40.8-12-7.9-20.9s41.8,32.5,30.4,48
	s-18.7,49,4.7,54.2c0,0,14.6,2.6,25.6-3c0,0,34-16.9,38.6-22.5c4.6-5.6,5.4-8,5.4-8s4.2-14.7,3.5-17.8"/>
<path class="st2" d="M830.8,161.6c0,0,6.2-15.8,8.9-25.8c0.9-3.2,1.4-5.9,1.2-7.1c0,0,0-2.3,1.4-2.3c0,0-0.2-4.4,1.6-6.4
	s6.1-3.1,7.2-4.1c1.1-1,6.6-5.8,10.9-7.4c0,0,2.8-2,3.9-2.4c1.1-0.5,2.8,1.3,2.9,2.5"/>
<path class="st2" d="M867.1,106.1c0,0,10.1,2.9,11.1,3.6"/>
<path class="st2" d="M859.1,116.5c0,0,1.7,3.7,1.6,5.1s-0.9,1.7-1.6,1.3c-0.7-0.5-1.2-2.6,2.4-3.4c3.6-0.8,6-3.8,6-3.8"/>
<path class="st2" d="M868.8,111.4c0,0,1.3,2.5,0,4.3"/>
<path class="st2" d="M870.8,113.6c0,0,0.1,2.5-0.8,2.9c-0.9,0.4,4.3,1,4.3,1"/>
<path class="st2" d="M856.7,122.3c0,0,1,7.3,3.1,9.5c2.1,2.2,2.1,2.2,2.1,2.2"/>
<path class="st2" d="M857.2,132.8c0,0,2.3,2.2,3.9,2.1c1.6-0.2,5.1-3.5,5.1-3.5s4.2-5.1,4.5-6.4c0.3-1.3,4.6-9.4,5.5-10
	c0.9-0.6,4.1-5,6.6-4.9c2.6,0.1,3.7,0.8,3.7,2.8c0,3-1.9,5.7-1.9,5.7s-3-0.3-4.4-2.9c0,0,0.4-1.8,1.7-3.3"/>
<path class="st2" d="M873.9,122.8c0,0,3.3,3.1,4.1,3"/>
<path class="st2" d="M877.3,123.1c0,0,3,1.6,3.8,2.8c0.7,1.2,3.2-5.6,3.2-5.6"/>
<path class="st2" d="M881,126.3c0,0-3.6,6.3-3.7,7.7s-2.3,7.8-4.4,10.5c-2.1,2.7-4.4,12.9-8.7,17.4c0,0-7.5,10.1-13,11.9
	c0,0-8.9,6.6-12.1,10.3c-3.2,3.6-18.7,15.6-18.7,15.6"/>
<path class="st2" d="M886.5,112.2c0,0,2,1,3.9,2.6c1.9,1.7,4.6,4.4,1.7,6.7s-7.8-1.3-7.8-1.3l0.4-1.6"/>
<line class="st2" x1="860.8" y1="121.6" x2="873" y2="119"/>
<path class="st2" d="M882.5,124.3c0,0,6.6,7.2,6.7,8.1c0.1,0.9,2.3,6.5,2.8,7.4c0.5,0.9,2.4,5.2,0.7,6.9s-4.9,0.6-7-3.7
	c0,0-3.3-4.8-3.2-5.6c0.1-0.9,0.4-2,1.2-2.8"/>
<path class="st2" d="M881.6,134.3c0,0-0.4,1.8,0,2.3c0.3,0.4-3.5-3.7-3.5-3.7"/>
<path class="st2" d="M859.3,130.9"/>
<path class="st2" d="M868.3,128.6c-0.5,0.7-4.5,1.2-4.5,1.2"/>
<path class="st2" d="M877.1,134.9c0,0,7.1,8.2,8.1,11.9c0,0,2.6,3.7,2.8,6c0.2,2.3-2.9,2.5-4.5,2.1c-1.6-0.3-4.8-5.7-4.9-6.8
	c0-0.5-1.2-1.7-2.4-2.7"/>
<path class="st2" d="M880.1,145.8c0,0-1.5,0.7-1.5,2.4"/>
<path class="st2" d="M872.1,157.5c-0.3-0.4-0.5-0.8-0.5-1.1c0-0.6-0.3-1.7,0.2-2.4"/>
<path class="st2" d="M875.3,151.2c0.4,0.4,0.7,0.7,1,0.8c1,0.5,2.6,5,2.6,5s2.2,3.6-0.2,4.8c-1.5,0.8-3.3-0.6-4.4-1.7"/>
<path class="st2" d="M871.5,147.3c0,0,0.8,0.9,1.8,1.9"/>
<line class="st3" x1="871.5" y1="155.1" x2="869.4" y2="153.2"/>
<path class="st2" d="M866.9,143.8c0,0,3.1,0.9,4.9-0.8"/>
<path class="st2" d="M1131.3,53.6c0,0-36.2-9.1-46.8-8.2c-10.2,0.8-58.3,1.7-84,34.9c-2.3,3-4.7,5.8-7.4,8.5
	c-13.7,13.4-52.8,46.5-93.5,32.8"/>
<path class="st2" d="M863.1,128.2c0,0,1.2,3.3,1.2,4.8"/>
<line class="st2" x1="826.4" y1="27.6" x2="825.8" y2="30.9"/>
<path class="st2" d="M1205.4,36.1c0,0,107.9-35.6,166.5,52.3c49.9,74.9,126.8,105.9,126.8,105.9"/>
</svg>
